<svg xmlns="http://www.w3.org/2000/svg" width="545.381" height="357.833"><g fill-rule="evenodd"><path data-name="パス 688" d="M34.543.001h476.293a34.641 34.641 0 0134.54 34.544v288.746a34.641 34.641 0 01-34.54 34.544H34.543A34.641 34.641 0 01-.001 323.291V34.545A34.642 34.642 0 0134.543.001z" fill="#e5e6e5"/><path data-name="パス 689" d="M34.543.001h476.293a34.641 34.641 0 0134.54 34.544v4.578L35.347 357.812h-.8A34.641 34.641 0 01.003 323.268V34.523A34.637 34.637 0 0134.543.001z" fill="#f1f1f1"/><path data-name="パス 690" d="M379.583 190.763c-1.094 19.873-2.5 39.658-4.622 59.464-1.7 10.116-7.637 19.271-15.608 25.59-6.364 5-13.844 5.56-21.682 6.029q-14.1-.235-28.225-.491c1.764-57.253 5.806-114.328 8.575-171.515 2.635-14.492 13.085-27.912 27.064-33 15.028-1.675 29.877-1.786 44.972-2.032-.156 5.2-.223 7.7-.357 12.549-2.9 33.137-6.208 66.252-9.4 99.367-.157.112-.223.179-.38.29a103.593 103.593 0 01-.337 3.749z" fill="#089146"/><path data-name="パス 691" d="M161.153 185.539q-2.814-38.317-5.85-76.613c1.027-11.745 6.967-23.58 17.239-29.81 15.765-6.364 33.874-3.349 50.4-3.238 1.228 17.841 1.384 35.728 2.523 53.569q2.076 46.39 4.086 92.78c-1.117 19.07 4.667 42.851-14.693 55.132-7.146 4.667-15.162 5.6-23.379 5.627h-.154c-7.726 0-15.586-.826-23.044-.179-.246-1.429-.357-2.143-.6-3.55-2.077-30.346-4.131-60.714-6.341-91.083-.075-1.05-.097-1.586-.187-2.635z" fill="#006ab1"/><path data-name="パス 692" d="M161.356 188.195a37.685 37.685 0 0024.183 10.316c11.924 1.049 27 2.166 36.442-6.766 5.582-4.377 1.9-10.316 2.858-16.077-.312-4.176-.469-6.252-.8-10.584-7.547-1.072-14.157.112-22.62-.112-2.077 10.271 6.141 25.925-9.11 29.431a25.588 25.588 0 01-14.09-1.652c-6.632-1.094-3.617-8.843-12.013-6.7-2.01-.2-3.015-.313-5-.514.037 1.052.059 1.586.15 2.658z" fill="#e6e7e8"/><path data-name="パス 693" d="M309.914 91.979c-1.9 53.882-5.292 107.7-6.989 161.578-3.148 9.914-9.155 19.784-18.511 24.9-14.246 6.118-30.145 3.707-45.151 3.349-2.032-57.454-3.751-114.931-5.761-172.408.8-10.875 7.369-20.543 16.033-26.863 6.431-5.047 14.358-6.7 22.754-7.212h37.291c.155 7.029.2 10.334.334 16.656z" fill="#df1e26"/><path data-name="パス 694" d="M303.461 164.482c.714 1.742-.157 3.193.134 5.18-12.214-2.456-26.1-4.555-37.6 1.63-4.042 3.394-6.409 6.7-6.029 11.1 1.183 4.935 5.471 9.646 12.058 11.611a93.95 93.95 0 0029.989-1.362c.313 1.407.6 3.394-.223 4.533l-44.57-.134c-7.771-1.139-13.978-4.242-17.618-9.713-3.238-5.2-1.876-12.259 3.617-16.769 4.712-3.953 11.545-6.319 19.2-6.074q20.532.031 41.042-.002z" fill="#e6e7e8"/><path data-name="パス 695" d="M356.426 183.059c-6.944-.849-14.135-.536-21.012-.246a38.314 38.314 0 00-.179 11.611c7.547.022 15.676.893 22.508-1.675 1.965-1.429 3.283-3.707 2.747-5.716-.223-1.7-1.92-3.126-4.064-3.975zm-18.98-15.631a21.576 21.576 0 00-1.3 10.875c8.061-.313 17.953 1.943 23.58-2.657 2.01-1.742 1.183-4.6.2-6.051-5.538-4.019-14.849-1.34-22.486-2.166zm42.136 23.335a12.535 12.535 0 01-9.624 7.235q-26.059-.066-52.1-.179c-.737-.223-1.117-.357-1.876-.58.647-11.1 1.384-22.107 2.568-33.182l34.432-.268c7.927.112 20.588-3.059 25.9 4.8a6.817 6.817 0 01-2.233 8.128c-1.63 2.01-4.868 2.322-5.739 3.751 3.885.849 7.882 3.417 9 6.565a88.49 88.49 0 01-.328 3.73z" fill="#e6e7e8"/></g></svg>