<svg xmlns="http://www.w3.org/2000/svg" viewBox="0 0 512 512" style="width:48px;height:48px"><path d="M454.002 324.104V187.896c16.877-5.176 29.228-20.691 29.228-39.268 0-22.79-18.475-41.257-41.258-41.257-10.87 0-20.69 4.292-28.06 11.168L296.125 50.53c.689-2.991 1.136-6.069 1.136-9.272C297.261 18.468 278.786 0 256.004 0c-22.782 0-41.258 18.468-41.258 41.258 0 3.203.447 6.281 1.136 9.272L98.087 118.54c-7.37-6.876-17.191-11.168-28.062-11.168-22.782 0-41.256 18.467-41.256 41.257 0 18.576 12.351 34.091 29.227 39.268v136.208c-16.876 5.176-29.227 20.691-29.227 39.268 0 22.79 18.474 41.257 41.256 41.257 10.879 0 20.692-4.292 28.062-11.168l117.787 68.01c-.69 2.991-1.136 6.069-1.136 9.272 0 22.79 18.475 41.258 41.257 41.258s41.257-18.468 41.257-41.258c0-3.203-.446-6.288-1.136-9.28l117.788-68.002c7.37 6.876 17.191 11.168 28.068 11.168 22.783 0 41.258-18.467 41.258-41.257.001-18.578-12.351-34.093-29.228-39.269zM243.967 431.476c-6.054 1.856-11.52 4.965-16.031 9.178l-117.788-68.01c.689-2.992 1.136-6.077 1.136-9.272 0-18.576-12.351-34.091-29.228-39.268V187.896c6.054-1.856 11.521-4.965 16.032-9.178l117.787 68.009c-.69 2.992-1.136 6.07-1.136 9.273 0 18.576 12.35 34.091 29.228 39.268v136.208zM227.935 225.91l-117.788-68.009c.689-2.992 1.136-6.07 1.136-9.273 0-3.203-.447-6.281-1.136-9.272l117.796-68.01c7.369 6.876 17.19 11.168 28.06 11.168 10.87 0 20.691-4.292 28.061-11.168l117.787 68.01c-.689 2.992-1.136 6.069-1.136 9.272 0 3.196.447 6.281 1.136 9.273l-117.803 68.002c-7.37-6.869-17.182-11.16-28.053-11.16s-20.69 4.291-28.06 11.167zm202.008 98.194c-16.877 5.176-29.227 20.691-29.227 39.268 0 3.195.447 6.281 1.136 9.272l-117.795 68.01c-4.519-4.214-9.978-7.323-16.031-9.178V295.268c16.877-5.177 29.227-20.692 29.227-39.268 0-3.203-.446-6.281-1.136-9.273l117.796-68.009c4.511 4.214 9.977 7.323 16.031 9.178v136.208z" fill="#fff"/></svg>