<svg xmlns="http://www.w3.org/2000/svg" width="545.403" height="357.833"><g transform="translate(-6928.776 -6764.153)"><path data-name="パス 767" d="M6963.343 6764.153h476.293a34.641 34.641 0 0134.544 34.544v288.745a34.642 34.642 0 01-34.544 34.544h-476.293a34.642 34.642 0 01-34.544-34.544v-288.745a34.641 34.641 0 0134.544-34.544z" fill="#e5e6e5" fill-rule="evenodd"/><path data-name="パス 768" d="M6963.342 6764.153h476.293a34.641 34.641 0 0134.544 34.544v4.578l-510.033 318.712h-.826a34.642 34.642 0 01-34.544-34.544v-288.746a34.675 34.675 0 0134.566-34.544z" fill="#f1f1f1" fill-rule="evenodd"/><circle data-name="楕円形 8" cx="106.825" cy="106.825" r="106.825" transform="translate(7022.36 6836.233)" fill="#da1f26"/><circle data-name="楕円形 9" cx="106.825" cy="106.825" r="106.825" transform="translate(7166.967 6836.233)" fill="#f9a01b"/></g></svg>