<svg xmlns="http://www.w3.org/2000/svg" width="545.426" height="357.833"><path data-name="パス 737" d="M34.567.001H510.86a34.641 34.641 0 0134.544 34.544v288.746a34.641 34.641 0 01-34.544 34.544H34.567A34.641 34.641 0 01.023 323.291V34.545A34.642 34.642 0 0134.567.001z" fill="#263c84" fill-rule="evenodd"/><path data-name="パス 738" d="M34.566.001h476.293a34.641 34.641 0 0134.544 34.544v4.578L35.37 357.812h-.826A34.641 34.641 0 010 323.268V34.523A34.67 34.67 0 0134.566.001z" fill="#2a4797" fill-rule="evenodd"/><path data-name="長方形 85" fill="#fff" d="M.023 78.757h545.381v200.32H.023z"/><path data-name="パス 739" d="M181.117 112.655l-33.651 90.726-3.6-18.444v-.022l-12.009-61.073c-2.077-8.44-8.106-10.919-15.564-11.232H60.871l-.29 2.3a136.849 136.849 0 0135.75 14.514l30.725 116.16h36.353l54.082-132.907h-36.374z" fill="#263c84" fill-rule="evenodd"/><path data-name="パス 740" d="M209.922 245.605l21.5-133.063h34.369l-21.5 133.063z" fill="#263c84" fill-rule="evenodd"/><path data-name="パス 741" d="M368.932 115.824a84.366 84.366 0 00-30.77-5.627c-34.008 0-57.9 18.065-58.1 43.878-.223 19.181 17.082 29.832 30.1 36.219 13.4 6.52 17.886 10.7 17.841 16.524-.134 8.887-10.718 12.951-20.588 12.951-13.733 0-21.035-1.987-32.289-6.989l-4.488-2.1-4.8 29.765c8.039 3.774 22.843 6.945 38.3 7.146 36.063 0 59.509-17.886 59.8-45.486.156-15.162-9.021-26.684-28.895-36.174-11.969-6.163-19.4-10.249-19.271-16.5.022-5.516 6.23-11.433 19.717-11.433a59.588 59.588 0 0125.7 5.091l3.059 1.541z" fill="#263c84" fill-rule="evenodd"/><path data-name="パス 742" d="M414.664 198.445c2.858-7.637 13.71-37.179 13.71-37.179-.223.357 2.791-7.726 4.555-12.706l2.278 11.5s6.61 31.73 7.972 38.385zm42.382-85.769h-26.55c-8.217 0-14.38 2.39-18.042 11.031l-51 121.943h36.105s5.9-16.39 7.212-19.985c3.952 0 38.988.067 43.99.067 1.072 4.667 4.22 19.918 4.22 19.918h31.887z" fill="#263c84" fill-rule="evenodd"/><path data-name="パス 743" d="M545.404 279.077H.023v44.213a34.622 34.622 0 0034.544 34.523h476.315a34.637 34.637 0 0034.544-34.522v-44.214z" fill="#e2a325" fill-rule="evenodd"/></svg>